<svg width="44" height="48" viewBox="0 0 44 48" fill="none" xmlns="http://www.w3.org/2000/svg">
<path d="M42.8489 36.6261C42.8201 36.6261 42.7914 36.6471 42.7626 36.6837C42.5063 36.4169 42.6057 36.0822 42.6502 35.7605C42.8646 35.8049 43.0294 35.7552 43.1026 35.5146C43.0974 35.3813 43.0948 35.2505 43.0895 35.1171C42.8201 34.8948 42.5874 34.411 42.2186 34.9524C42.2134 34.9497 42.2108 34.9445 42.2056 34.9419C41.6537 34.9236 41.2379 35.2139 40.8404 35.5408C40.673 35.3656 40.7488 35.1851 40.8456 35.0047C40.9241 34.9916 41.0025 34.9759 41.081 34.9471C41.2039 34.8896 41.2981 34.7981 41.3739 34.6882C41.4445 34.6961 41.5177 34.7065 41.5884 34.7144C41.6537 34.377 41.7583 34.0422 41.7766 33.7022C41.8133 33.0484 41.6223 32.7058 40.9528 33.2263C40.2022 33.1713 39.5772 33.3675 39.2111 34.0893C38.9783 34.3012 38.7482 34.5104 38.5154 34.7222C38.9548 34.9864 38.9731 35.818 39.7446 35.6323C39.5824 35.9514 39.4412 36.2731 39.4281 36.6288C39.3471 36.6418 39.266 36.6601 39.1875 36.6889C39.3131 36.1057 38.824 35.9828 38.3768 35.8755C37.9034 35.7631 37.4614 35.8546 37.0456 36.0482C37.0796 35.9279 37.0874 35.7997 37.0639 35.6663C37.0639 35.6585 37.0639 35.6533 37.0587 35.648C37.464 35.6009 37.4876 35.4126 37.2705 35.138C37.2993 35.1093 37.3254 35.0805 37.349 35.0491C37.3961 33.867 36.5095 33.8173 35.6961 33.6813C35.7013 33.6186 35.6961 33.5532 35.6778 33.4904C35.921 33.1844 36.1643 32.8784 36.4075 32.5724C36.5984 32.5803 36.7867 32.5908 36.9776 32.5986C37.3673 32.5489 37.5634 32.324 37.5817 31.9369C38.5912 31.7225 38.1048 31.189 37.8459 30.7025C38.0185 30.3547 38.5912 30.3442 38.5782 29.8395C39.6897 29.4263 38.552 29.1857 38.5023 28.8614C38.6069 28.7594 38.7142 28.66 38.8188 28.558L38.8083 28.5345C38.8109 28.5423 38.8161 28.5501 38.8188 28.5606C39.1927 28.8274 39.6295 28.8875 40.0715 28.9189C40.0846 29.6015 40.4167 29.7558 41.0078 29.489C41.1098 29.659 41.2117 29.829 41.3137 29.999C41.4393 30.2632 41.5988 30.2736 41.7714 30.1716C41.9466 30.4462 42.0146 30.8594 42.5168 30.7025C42.6345 30.5011 42.7522 30.2998 42.8698 30.0984C42.8385 30.0069 42.8358 29.9153 42.8646 29.8212C43.1732 29.7244 43.5629 29.8473 43.7695 29.4838C43.5315 29.081 43.2909 28.6783 43.0529 28.2782C43.0634 28.1578 43.0712 28.0349 43.0791 27.9146C43.1104 27.7316 43.1444 27.5485 43.1758 27.3654C43.1392 27.3367 43.1026 27.3105 43.066 27.2817C43.0712 27.2791 43.0791 27.2739 43.0843 27.2713L43.1758 27.3654C43.4609 27.2425 43.4478 26.9757 43.4818 26.7325C43.8532 26.4919 43.8506 26.2696 43.4478 26.0656C43.4923 25.6158 43.2674 25.4327 42.8411 25.4536C42.7835 25.0457 42.6423 24.6926 42.2108 24.5435C42.0042 24.1277 42.8201 23.7746 42.2866 23.3588C42.2056 23.296 41.9571 23.3248 41.876 23.4059C41.536 23.738 41.7165 24.1355 41.7923 24.5174C41.8106 24.6141 41.8054 24.7135 41.8133 24.8129C41.7374 24.9254 41.6642 25.0352 41.5884 25.1477C40.9267 25.4432 41.1254 24.0414 40.367 24.5278C40.0166 24.1643 39.7524 24.588 39.4464 24.6272C39.3444 24.588 39.2451 24.5488 39.1431 24.5069C39.1169 24.2218 39.0908 23.9368 39.0672 23.6517C39.1927 23.4373 39.3183 23.2202 39.4438 23.0057C39.8256 22.4722 40.0035 21.957 39.3209 21.5124C38.7586 21.6641 38.2042 21.8733 37.6053 21.7399C37.7099 21.2457 38.3846 20.8743 37.927 20.2571C38.2146 20.142 38.5049 20.0243 38.7926 19.9092L39.1378 19.551C39.7341 19.6163 40.1186 19.19 40.5736 18.9311C40.8116 18.8579 41.0522 18.7847 41.2902 18.7114C41.6511 19.0096 42.0277 19.2502 42.5168 18.9965C42.5037 18.7245 42.4331 18.4839 42.1585 18.361C42.0643 18.1675 41.9702 17.9739 41.8734 17.7778C41.7479 17.7883 41.625 17.7961 41.4994 17.8066C41.4524 17.7281 41.4001 17.6496 41.3425 17.5738C41.0156 17.2992 40.673 17.137 40.2755 17.4457C40.197 17.6078 40.1839 17.7595 40.2389 17.9059C39.9616 17.8249 39.7106 17.8379 39.5223 18.1073C39.1744 17.8589 39.0123 17.5503 39.2424 17.1109C39.2555 17.1109 39.266 17.1109 39.266 17.1109H39.3837C39.6033 17.2234 39.823 17.3358 40.0427 17.4483C40.2023 17.3437 40.3905 17.2652 40.5187 17.1318C40.9215 16.7108 40.3905 16.9095 40.299 16.8154C40.1892 16.5983 40.0793 16.3838 39.9695 16.1668C40.095 15.6673 40.2206 15.1704 40.3461 14.6708L40.4978 14.6656H40.6468C40.6782 14.7205 40.7227 14.7781 40.7907 14.8434C41.2144 15.0317 41.604 15.0082 41.9388 14.6551C41.842 14.5165 41.7479 14.3753 41.6511 14.2367C41.6511 14.2367 41.6433 14.2184 41.6407 14.2158C41.2954 13.9333 41.6903 13.1906 40.9711 13.1409C40.8691 13.0311 40.7645 12.9212 40.6625 12.8114C40.4481 12.8271 40.231 12.8401 40.0166 12.8558C39.755 12.8035 39.517 12.8088 39.436 13.1331C38.9103 13.0494 38.8528 13.5986 38.5363 13.7947C38.0525 13.3841 37.893 12.8401 37.8825 12.2308C37.7831 12.3328 37.6811 12.4348 37.5817 12.5368C37.1894 12.5603 36.7945 12.5812 36.4022 12.6048C36.2689 12.3171 36.023 12.2203 35.7275 12.2046C35.8373 12.6257 35.9472 13.0467 36.057 13.4678C36.0518 13.664 35.7589 13.8496 36.0387 14.0536C35.8766 14.3779 35.7929 14.6682 36.3159 14.6944C36.3369 14.7885 36.3473 14.8853 36.3499 14.9794C36.0701 15.0788 35.874 15.2671 35.7563 15.5339C35.67 15.5548 35.5915 15.5914 35.5209 15.6542C35.3143 15.8765 35.1548 16.1223 35.092 16.4178C35.0318 16.3891 34.9691 16.3682 34.9063 16.3551C34.9298 16.2845 34.9377 16.2086 34.922 16.1275C34.9194 16.1171 34.9141 16.1066 34.9115 16.0962C35.126 15.8922 35.1051 15.6097 35.0632 15.3194C35.0031 15.2122 34.9403 15.105 34.8775 14.9977C35.7144 13.9935 34.3152 13.8313 34.1976 13.1854C34.4512 13.0311 34.7965 12.9578 34.7782 12.5525C34.5375 12.5054 34.2708 12.5028 34.1662 12.2125C34.1949 11.7783 35.4241 12.1392 34.7938 11.2684L34.854 11.2945C34.888 11.2605 34.956 11.2187 34.9508 11.1977C34.9298 11.1167 34.8828 11.0408 34.8461 10.965C34.8148 10.8682 34.7991 10.7662 34.7991 10.6642C34.6918 10.6485 34.582 10.6355 34.4748 10.6198C34.4539 10.6433 34.4329 10.6695 34.4094 10.693C34.3519 10.693 34.2969 10.693 34.2394 10.693C34.2577 10.6695 34.2786 10.6511 34.2917 10.6276C34.3022 10.5701 34.3126 10.5152 34.3231 10.4576C34.378 10.4628 34.4329 10.4315 34.4905 10.3582C34.4905 10.1072 34.4931 9.8561 34.4957 9.60503C34.5506 9.61026 34.6055 9.62073 34.6605 9.62073C34.8749 9.57104 35.1103 9.54227 35.1338 9.32781C35.1548 9.35397 35.1704 9.38012 35.194 9.40366C35.3404 9.52134 35.5078 9.58934 35.6909 9.60242C35.6647 9.94764 35.908 10.0836 36.2479 10.1464C36.2322 10.2013 36.2323 10.2536 36.2427 10.3085C35.6935 10.0653 35.1129 9.65996 34.8095 10.6538C35.2201 10.6616 35.6307 10.6668 36.0413 10.6747C36.227 10.6825 36.4127 10.6878 36.5984 10.6956C37.0639 11.0434 37.6079 11.1585 38.1728 11.2213C38.2512 10.7113 38.3323 10.2013 38.4134 9.69134C38.4579 9.72272 38.5075 9.74364 38.5625 9.75411C38.4657 8.73153 38.3872 8.57461 37.7387 8.73415C37.6811 8.73415 37.6131 8.74984 37.5268 8.78907C37.3307 8.81522 37.1371 8.84399 36.941 8.87014C37.0404 8.54846 37.145 8.2294 37.2339 7.9051C37.3934 7.32974 37.1031 7.33235 36.6952 7.49189C36.6062 7.41081 36.5173 7.32712 36.4284 7.24605C36.4284 6.75961 35.8818 6.71515 35.7092 6.3647C35.6072 6.33593 35.5078 6.33593 35.4084 6.36993C35.1051 6.2444 34.9063 5.3892 34.4669 6.23655C34.2002 6.00902 34.0354 5.60104 33.5647 5.7318C33.2194 5.37089 33.8236 4.78768 33.2717 4.47646C33.0128 3.98479 32.6676 3.58988 32.1367 4.09986C31.7863 4.43724 31.6921 4.88445 32.3067 5.13813C32.4139 5.39181 32.5212 5.6455 32.631 5.89918C32.2178 5.7998 31.8072 5.70042 31.394 5.60104C31.3992 5.67688 31.4097 5.75011 31.4254 5.82334C31.4254 5.82334 31.4018 5.82334 31.3914 5.82334C31.3914 5.82072 31.394 5.8181 31.3966 5.81549C31.3966 5.74488 31.3966 5.67165 31.394 5.60104C30.9598 5.38135 30.7402 4.83737 30.1805 4.80338C30.1622 4.71707 30.1491 4.62815 30.1413 4.53923C30.1282 3.68665 30.2537 2.77915 29.2442 2.33193C29.4351 2.11748 29.6287 1.90564 29.8196 1.69119C29.9111 1.42443 29.9346 1.17336 29.6339 1.01383C29.3279 0.32078 29.1344 0.799377 28.9225 1.08183C28.7996 1.17336 28.6767 1.2649 28.5564 1.35382C28.4962 1.33813 28.4335 1.33289 28.3707 1.34336C28.3262 0.956294 28.4152 0.378316 27.7901 0.516926C27.2121 0.645075 27.3455 1.2309 27.3324 1.68073C26.9323 1.98672 26.54 1.66242 26.1425 1.66765C25.9437 1.67811 25.745 1.68596 25.5462 1.69642C25.031 1.14459 24.6675 1.1289 24.5576 1.98148C24.3719 2.0861 24.1863 2.19071 24.0032 2.2927C23.841 1.81934 23.42 1.79057 23.0225 1.72257C22.7792 1.06875 22.5177 0.462005 21.6808 1.1106C21.1787 1.22567 21.2702 1.65981 21.197 2.00502C21.0035 2.19855 20.8125 2.39208 20.619 2.58562C20.5301 2.49147 20.4386 2.39993 20.3496 2.30578C20.1221 1.97887 19.892 1.62319 19.4212 1.7278C19.0211 1.81672 19.3715 2.12794 19.2904 2.31886C19.2957 2.53069 19.3009 2.74515 19.3035 2.95699C19.2094 3.56896 19.6644 3.51666 20.0384 3.56373C20.109 4.1234 19.5363 4.1574 19.2983 4.466C19.1204 4.47646 18.9426 4.48693 18.7648 4.49477C18.77 3.8828 18.4405 3.60558 17.8547 3.58727V3.57681C17.159 4.12079 17.4676 4.38755 18.1266 4.55492C18.3359 4.53662 18.5477 4.51831 18.7569 4.49739C18.7569 5.00737 18.7543 5.51473 18.7517 6.02471C18.736 6.11625 18.7203 6.2104 18.7046 6.30193C18.4666 6.48762 18.2234 6.65761 17.8965 6.57131C17.1328 6.46408 16.6909 5.94364 16.3116 5.34212C16.2175 5.3552 16.1233 5.36305 16.0292 5.37351C15.9481 4.82953 15.5427 4.78507 15.1374 4.86091C14.6771 4.94722 14.7399 5.35781 14.7268 5.70042C14.5359 5.7998 14.3449 5.89918 14.154 5.99856C13.8533 5.61411 13.5577 5.41012 13.019 5.69257C12.3521 6.0404 12.9876 6.50592 12.8228 6.87729C12.6502 6.88776 12.475 6.89822 12.3024 6.91129C12.1926 6.83545 12.0801 6.75961 11.9703 6.68115C11.7767 5.98025 11.1255 6.25747 10.6862 6.08225C10.6129 6.05348 10.5423 6.05348 10.4717 6.09009C10.354 6.0561 10.2363 6.0221 10.1213 5.98548C9.87543 5.67688 9.62697 5.37089 9.19284 5.72134C8.48671 6.12932 9.50667 6.9296 8.82408 7.34281C8.43179 7.22513 8.0395 7.10482 7.64982 6.98714C7.06923 6.44577 6.62986 6.58961 6.30556 7.26959C6.1408 7.36897 5.97604 7.46835 5.81389 7.57034C5.56805 7.57034 5.28299 7.55465 5.24114 7.86849C5.19407 8.2137 5.52359 8.19017 5.73543 8.26862C6.12772 8.74984 5.09469 9.26243 5.7642 9.73841C6.0728 10.0889 6.38141 10.4393 6.69001 10.7898C7.06923 11.1533 6.25849 12.0869 7.32814 12.1236C7.43013 12.7774 6.95938 13.745 8.2278 13.7581C8.20164 14.7702 8.56255 15.4188 9.70805 15.322C9.58513 15.7013 9.30006 15.8503 8.92608 15.8765C8.08396 15.275 8.08396 16.3237 7.65243 16.5277C7.53475 16.4309 7.41706 16.3315 7.29937 16.2348C7.29152 15.8817 7.07446 15.683 6.76324 15.6882C6.38925 15.696 6.55402 16.0386 6.50956 16.2452C6.15388 16.4963 6.17741 16.8023 6.38925 17.1318C6.01265 17.307 5.24376 17.239 5.84004 18.0184C5.72235 18.225 5.60205 18.4316 5.48436 18.6382C5.31176 18.7638 4.62394 18.701 5.07638 19.0305C5.5419 19.3705 5.40329 19.9772 5.8845 20.1995C5.73282 20.9318 5.13915 21.1881 4.54809 21.447C4.46179 21.4392 4.38071 21.4549 4.30487 21.4941C4.25518 21.549 4.21595 21.604 4.18457 21.6563C3.99627 21.9126 3.80797 22.1715 3.61967 22.4278C3.43137 22.433 3.24045 22.4382 3.05215 22.4435C2.96585 22.3912 2.8717 22.3624 2.77232 22.3598C2.4794 22.0041 3.33722 21.5229 2.65724 21.2274C2.49771 21.1594 2.19434 21.1541 2.09757 21.2535C1.75759 21.6092 1.70005 22.0224 2.09234 22.4121C2.09496 22.5062 2.08188 22.5978 2.0505 22.6841C2.06357 22.7468 2.06357 22.8122 2.05573 22.875C2.03481 22.8907 2.01388 22.9037 1.99035 22.9168C1.7942 23.0816 1.61113 23.2647 1.39145 23.4033C1.36006 23.432 1.32606 23.4556 1.29207 23.4817C1.14822 23.4111 1.007 23.3405 0.863159 23.2699C0.562402 23.5654 0.4081 23.8583 0.871005 24.1486C0.986077 24.2768 1.10115 24.4049 1.21622 24.5305C1.33129 24.6168 1.44898 24.7031 1.56405 24.7894C1.43068 25.1294 1.52744 25.4301 1.71574 25.7178L1.62159 26.0944C2.40356 26.1415 3.10446 26.8057 3.94658 26.3952C3.55952 27.1484 3.47844 27.7812 4.56378 27.9512C4.70501 28.5397 5.03192 28.7201 5.57851 28.4115C5.54975 28.66 5.50267 28.9241 5.90281 28.8771C5.89235 29.1935 5.8845 29.5073 5.87404 29.8212L6.43894 30.6607L6.58801 30.6894L6.73708 30.6685C6.97508 30.8464 7.4066 30.5221 7.58967 30.8385C7.01954 31.1942 7.33598 31.5734 7.61582 31.95C7.70474 32.1749 7.62367 32.4861 7.94011 32.596C7.94535 32.6849 7.93488 32.7738 7.9035 32.8601C7.81981 32.9621 7.73874 33.0641 7.65505 33.1687C7.21568 33.0249 6.72401 32.6352 6.35787 33.2027C5.97604 33.7938 6.7057 33.8592 6.91754 34.173C7.26014 35.5905 7.93227 34.9419 8.58086 34.4398C8.77962 34.5496 8.981 34.6594 9.17976 34.7693C9.72112 35.4257 10.2468 35.6742 10.7385 34.7222C11.2458 34.8216 11.7532 34.9236 12.2606 35.023C12.4724 35.2322 12.6842 35.4414 12.8961 35.6506C13.8454 37.6853 14.0573 35.6846 14.5725 35.3446C15.5192 35.7448 16.1364 35.3185 16.6098 34.5339C16.8112 34.4947 17.0125 34.4555 17.2113 34.4136C17.4754 34.4659 17.6219 34.3038 17.75 34.1129C17.941 34.8033 18.7726 34.5496 19.1021 35.0334C20.007 36.3777 20.9093 37.7219 21.8142 39.0662C21.9214 39.1656 22.0286 39.2623 22.1359 39.3617C22.0365 39.6729 21.9345 39.9815 21.8351 40.2928C22.1751 40.9387 21.8953 41.6475 22.0365 42.3118C21.9737 42.3039 21.924 42.3667 21.8874 42.5001V42.4451C21.5265 43.1487 21.6651 43.8705 21.8142 44.5897C21.8325 44.8983 21.8534 45.2095 21.8717 45.5181C21.7488 45.8136 21.7907 46.0595 22.0888 46.2268C22.026 46.2556 22.0103 46.3027 22.0391 46.3628C21.5396 46.4256 20.8439 46.5381 20.9982 47.1108C21.1499 47.6652 21.7462 47.2128 22.1463 47.1108C22.2405 47.0873 22.3425 47.0951 22.4419 47.0873C22.74 47.9712 23.0774 47.5972 23.4174 47.116C23.4932 47.1239 23.569 47.116 23.6423 47.0899C24.1836 48.1726 25.2481 47.4116 26.0902 48C25.8496 47.205 25.3082 47.2703 24.9264 47.0873C23.7704 46.3471 23.7155 45.1703 23.692 43.9829C23.6789 43.1617 23.6658 42.3431 23.6527 41.5219C23.9823 40.9178 24.3144 40.3111 24.6439 39.7069C25.1565 39.4376 25.303 38.8962 25.5828 38.4516C25.86 38.0305 26.1399 37.6069 26.4171 37.1858C26.5374 37.0786 26.6603 36.9714 26.7806 36.8641C27.2801 36.9687 27.8607 36.7674 28.2609 37.2538C29.1161 37.7402 29.4273 37.2956 29.545 36.5111C29.7568 36.5477 29.9713 36.5843 30.1831 36.6209C30.6748 36.7307 31.1664 36.8772 31.6293 36.5634C31.6424 36.5869 31.6503 36.6104 31.6686 36.634C31.8909 36.7386 32.1079 36.7569 32.3198 36.6052C33.0442 36.1397 33.5045 37.1021 34.1714 36.9452C34.1766 37.1858 34.2237 37.4081 34.4696 37.5232C34.6369 37.6958 34.8148 37.9338 35.0711 37.8004C35.3431 37.6592 35.2332 37.3924 35.1391 37.1675C35.1364 37.0027 35.1338 36.838 35.1286 36.6758C35.5418 36.634 35.955 36.5895 36.3682 36.5477C36.3761 36.804 36.4022 37.0524 36.6481 37.2067C37.2601 36.8955 37.872 36.6104 38.4892 37.1937C38.0943 37.4133 37.5713 37.5075 37.5765 38.1195C37.4719 38.3261 37.3699 38.5301 37.2653 38.7367C37.4667 38.7367 37.6707 38.7367 37.872 38.7367C38.0943 39.1368 38.1074 39.7436 38.8031 39.6729C39.402 40.1725 39.7027 39.9319 39.7289 39.2545C39.742 38.8831 39.47 38.5065 39.742 38.1325C40.1526 38.0724 40.5736 38.4935 40.9764 38.1064C41.5413 38.2999 41.7479 37.9076 41.9493 37.5075C42.2552 37.463 42.5586 37.4186 42.8646 37.3715C43.2778 37.5101 43.6544 37.429 43.9996 37.1727C43.9081 36.3672 43.2961 36.6732 42.8463 36.6314L42.8489 36.6261ZM20.8047 31.4557C20.8047 31.44 20.8047 31.427 20.8047 31.4113C20.8047 31.4113 20.8099 31.4113 20.8125 31.4086C20.8099 31.4243 20.8047 31.44 20.8047 31.4557ZM35.432 8.22416C35.432 8.22416 35.4267 8.21632 35.4241 8.2137C35.4241 8.2137 35.4241 8.21109 35.4267 8.20847L35.432 8.22416ZM26.1216 27.3314C26.1216 27.3314 26.1216 27.3262 26.1216 27.3236C26.1294 27.3236 26.1373 27.3288 26.1451 27.3314C26.1373 27.3314 26.132 27.3314 26.1242 27.3314L26.166 27.3367C26.166 27.3367 26.1634 27.3314 26.1608 27.3314C26.1686 27.3314 26.1739 27.3314 26.1817 27.3314C26.1713 27.3523 26.166 27.3706 26.1608 27.3916C26.1477 27.3706 26.1373 27.3523 26.1242 27.3314H26.1216ZM19.4343 30.6921C19.4186 30.6659 19.4029 30.6398 19.382 30.6136C19.0054 30.3808 18.6471 30.3704 18.3045 30.6188C18.2914 30.5299 18.2679 30.4436 18.2234 30.3599C18.2025 30.339 18.1789 30.3233 18.1554 30.3024C18.2443 30.1376 18.3333 29.9755 18.4196 29.8107C18.4692 29.3269 18.4039 28.7881 19.0132 28.5711C19.2878 29.0104 19.212 29.7296 19.9547 29.7924C19.939 29.8081 19.9207 29.8186 19.905 29.8342C19.7717 30.0984 19.7298 30.3495 19.9312 30.5587C19.7533 30.5587 19.5834 30.5874 19.4317 30.6894L19.4343 30.6921ZM30.0497 24.5671C30.0497 24.5671 30.0497 24.5645 30.0497 24.5618C30.0706 24.5566 30.0889 24.5566 30.1099 24.5488C30.136 24.5383 30.1569 24.52 30.1805 24.5069C30.1805 24.52 30.1805 24.5331 30.1805 24.5461L30.1099 24.5488C30.1099 24.5566 30.1099 24.5645 30.1125 24.5723C30.0916 24.5723 30.0733 24.5671 30.0523 24.5671H30.0497ZM16.6176 26.5285C16.4895 26.5599 16.3692 26.607 16.2515 26.6724C16.2175 26.6933 16.1861 26.7168 16.1547 26.7378C16.0893 26.6096 16.0266 26.4788 15.9612 26.3481C15.9612 26.165 15.9612 25.9819 15.9612 25.7989C15.9612 25.587 15.9664 25.3752 15.9664 25.1634C16.0763 25.0561 16.1861 24.9489 16.2959 24.8443C16.4712 24.8469 16.649 24.8521 16.8268 24.8547C17.0779 25.4484 16.6987 25.9689 16.6202 26.5233L16.6176 26.5285ZM8.26703 19.9092L8.26441 19.8857C8.26441 19.8936 8.26441 19.904 8.26441 19.9119C8.25133 19.9014 8.23826 19.8909 8.22518 19.8831C8.23826 19.8831 8.25133 19.8831 8.26441 19.8857C8.26441 19.8857 8.26703 19.8831 8.26964 19.8805C8.26964 19.8883 8.26964 19.8988 8.26964 19.9066L8.26703 19.9092ZM33.8733 20.2152C33.8733 20.2022 33.8733 20.1891 33.8759 20.176C33.8811 20.1891 33.8916 20.2022 33.8994 20.2152C33.889 20.2152 33.8811 20.2152 33.8706 20.2152H33.8733ZM32.0243 28.5423C32.0243 28.5423 32.0243 28.5475 32.0243 28.5501C32.0243 28.5501 32.0243 28.5501 32.0216 28.5501C32.0216 28.5501 32.0216 28.5449 32.0243 28.5423ZM24.283 20.8847C24.2726 20.8691 24.2595 20.856 24.2464 20.8403C24.2673 20.8403 24.2882 20.8403 24.3092 20.8377L24.2804 20.8847C24.2856 20.8847 24.2909 20.8847 24.2961 20.8847C24.2909 20.8926 24.2883 20.9031 24.2856 20.9109C24.2856 20.9031 24.283 20.8952 24.283 20.8847ZM11.6512 22.0956C11.6512 22.0956 11.6747 22.1061 11.6852 22.1113L11.659 22.0669L11.7114 22.0904C11.7114 22.0904 11.6957 22.1061 11.6852 22.1113C11.68 22.1165 11.6747 22.1192 11.6695 22.1244C11.6643 22.1139 11.6564 22.1061 11.6512 22.0956ZM12.8882 26.7038C12.8987 26.6985 12.9092 26.6933 12.9222 26.6881C12.9222 26.6907 12.9222 26.6933 12.9222 26.6959C12.9222 26.6959 12.9065 26.7011 12.8908 26.7064L12.8882 26.7038ZM12.6241 23.8923C12.6241 23.8923 12.6241 23.908 12.6267 23.9159C12.6267 23.9159 12.6032 23.9159 12.5875 23.9185C12.5875 23.9185 12.5849 23.9159 12.5822 23.9132C12.5953 23.9054 12.611 23.8976 12.6241 23.8897V23.8923ZM13.5761 22.4644C13.563 22.4382 13.5525 22.4147 13.5394 22.3885C13.5447 22.3859 13.5473 22.3807 13.5525 22.3781C13.5708 22.3781 13.597 22.3781 13.597 22.3781C13.5891 22.4068 13.5813 22.4356 13.5761 22.4644ZM25.5357 18.3741L25.541 18.3767C25.541 18.3767 25.541 18.3741 25.5436 18.3741C25.5436 18.3767 25.5384 18.3819 25.5357 18.3845C25.5357 18.3819 25.5357 18.3767 25.5357 18.3741ZM26.5269 13.7476C26.5269 13.7476 26.5269 13.745 26.5269 13.7424C26.5819 13.8078 26.6342 13.8706 26.6891 13.9359C26.6289 13.8758 26.5688 13.8183 26.5243 13.7476H26.5269ZM28.9382 12.848C28.9382 12.848 28.9382 12.8297 28.9382 12.8218C28.9382 12.8218 28.9408 12.8192 28.9435 12.8166C28.9435 12.8166 28.9435 12.814 28.9435 12.8114C28.9565 12.8114 28.9722 12.8114 28.9853 12.8114C28.9696 12.8218 28.9565 12.8349 28.9408 12.848H28.9382ZM28.7892 12.0451C28.7892 12.0451 28.8048 12.0268 28.8153 12.0189C28.8075 12.0268 28.7996 12.0372 28.7892 12.0451ZM24.6413 16.4702L24.6125 16.5329C24.6125 16.5329 24.5995 16.5329 24.5916 16.5329C24.6073 16.512 24.623 16.4911 24.6387 16.4702H24.6413ZM18.1737 15.2985C18.1737 15.2985 18.1528 15.2985 18.1423 15.2985C18.1423 15.2985 18.1423 15.2854 18.1423 15.2828C18.1528 15.288 18.1633 15.2933 18.1737 15.2959V15.2985ZM15.9612 14.9821C15.9612 14.9821 15.9638 14.9847 15.9664 14.9873C15.9664 14.9873 15.9612 14.9873 15.9612 14.9847H15.9638L15.9612 14.9821ZM21.2179 10.6276C21.2258 10.6407 21.2336 10.6538 21.2467 10.6668C21.2441 10.6668 21.2414 10.6668 21.2362 10.6668C21.2362 10.6616 21.2362 10.659 21.2362 10.6538C21.231 10.6538 21.2258 10.6538 21.2205 10.6538C21.2205 10.6459 21.2205 10.6355 21.2205 10.6276H21.2179ZM20.9093 10.3399C20.9093 10.3399 20.9145 10.3425 20.9171 10.3452C20.9171 10.3452 20.9119 10.3452 20.9093 10.3452C20.9093 10.3452 20.9093 10.3452 20.9093 10.3399ZM20.041 12.8506C20.041 12.8506 20.041 12.8532 20.041 12.8558C20.0384 12.8558 20.0332 12.8558 20.0306 12.8558C20.0332 12.8558 20.0384 12.8558 20.041 12.8532V12.8506ZM16.8948 11.8908C16.8948 11.8908 16.8948 11.8908 16.8975 11.8934C16.8975 11.8934 16.8975 11.8934 16.8948 11.8908ZM10.7306 24.3474L10.6495 24.3395C10.6679 24.3317 10.6888 24.3186 10.7071 24.3082C10.7149 24.3212 10.7228 24.3343 10.7306 24.3474ZM12.5378 29.0994C12.5378 29.0994 12.577 29.1386 12.5849 29.1464C12.5692 29.1307 12.5509 29.115 12.5352 29.0994H12.5378ZM12.5901 29.1517C12.5901 29.1517 12.5927 29.1517 12.5953 29.1517C12.5953 29.1543 12.5927 29.1569 12.5901 29.1595C12.5901 29.1569 12.5901 29.1543 12.5901 29.149V29.1517ZM15.3728 22.9194C15.3728 22.9194 15.3884 22.9299 15.3963 22.9351C15.3832 22.9404 15.3727 22.9456 15.3597 22.9534C15.3649 22.943 15.3675 22.9299 15.3728 22.9194ZM29.5528 21.1803C29.5528 21.1803 29.5528 21.1986 29.5528 21.209C29.5345 21.2038 29.5162 21.2038 29.4979 21.1986C29.5162 21.1934 29.5345 21.1907 29.5528 21.1829V21.1803ZM29.885 21.8289C29.885 21.8289 29.864 21.8079 29.8536 21.7975C29.864 21.7844 29.8693 21.7687 29.8771 21.7556L29.9059 21.7452C29.898 21.7713 29.8928 21.8001 29.885 21.8289ZM31.7915 20.7566C31.6346 21.2483 31.7392 21.7269 31.8621 22.2029C31.6921 22.3467 31.7261 22.6213 31.7366 22.8776C31.6398 22.8384 31.5404 22.8096 31.4332 22.807C31.4201 22.807 31.4097 22.8148 31.3966 22.8174C31.2946 22.4618 31.1926 22.1061 31.0906 21.7504C31.0958 21.5464 31.1011 21.3398 31.1063 21.1358C31.1952 20.8586 31.2815 20.584 31.3704 20.3068C31.3757 20.3068 31.3809 20.312 31.3887 20.3146C31.4777 20.3251 31.5561 20.3094 31.6293 20.2728C31.7104 20.3931 31.8229 20.4741 31.9693 20.516C31.9013 20.5788 31.8412 20.6546 31.7941 20.754L31.7915 20.7566ZM12.9013 15.56C12.9013 15.56 12.9013 15.5836 12.9013 15.594C12.9013 15.594 12.8961 15.5888 12.8882 15.5862C12.8882 15.5836 12.8882 15.5783 12.8856 15.5757C12.8908 15.5705 12.8961 15.5653 12.9013 15.56ZM12.8882 15.8974C12.8882 15.8974 12.8935 15.8765 12.8961 15.866V15.9L12.9039 15.8896C12.9039 15.8896 12.9118 15.9 12.917 15.9053C12.9092 15.9053 12.9039 15.9026 12.8961 15.9C12.8908 15.9 12.8882 15.9 12.883 15.9C12.883 15.9 12.883 15.9 12.8856 15.8974H12.8882ZM11.9781 17.124C11.9781 17.124 11.9807 17.124 11.9833 17.124H11.9807C11.9703 17.124 11.9598 17.124 11.9493 17.124C11.9546 17.1187 11.9598 17.1135 11.965 17.1083C11.9703 17.1135 11.9755 17.1187 11.9807 17.124H11.9781ZM11.6957 18.6591C11.693 18.6827 11.6957 18.7062 11.6957 18.7298C11.6826 18.7167 11.6721 18.7036 11.659 18.6905C11.6695 18.6827 11.6774 18.6722 11.6852 18.6644L11.6957 18.6591ZM8.99146 26.471C8.99146 26.471 8.98361 26.4867 8.97838 26.4971C8.96269 26.4815 8.947 26.4658 8.93392 26.4501C8.95223 26.4579 8.97054 26.4658 8.99146 26.471ZM18.3986 23.5131C18.3986 23.5131 18.4012 23.5314 18.4039 23.5419C18.396 23.5393 18.3856 23.534 18.3777 23.5288C18.3856 23.5236 18.3934 23.5183 18.4012 23.5131H18.3986ZM25.371 6.46931C25.3814 6.73345 25.4181 6.97406 25.7136 6.98975C25.6064 7.14405 25.5436 7.31666 25.5174 7.50758C25.4991 7.68542 25.5044 7.85802 25.5305 8.03063C25.4337 8.17709 25.3344 8.32093 25.2376 8.46739C25.2141 7.83449 25.3788 7.09959 24.4321 6.96098C24.3772 6.96883 24.3327 6.98714 24.2882 7.01067C24.2882 6.98975 24.2856 6.96883 24.2882 6.94791L24.4321 6.95837C24.3719 6.87729 24.3484 6.78576 24.3667 6.68638C24.4609 6.59223 24.5524 6.49808 24.6465 6.40654C24.6675 6.42747 24.6858 6.451 24.7119 6.47193C24.9473 6.58961 25.167 6.57654 25.3736 6.46669L25.371 6.46931ZM11.6774 29.1621H11.68C11.6826 29.1674 11.6878 29.1726 11.6904 29.1778C11.6826 29.1778 11.6747 29.1778 11.6669 29.1778C11.6695 29.1726 11.6747 29.1673 11.6774 29.1595V29.1621ZM19.0786 23.0345C19.0786 23.0345 19.0786 23.0241 19.0786 23.0214C19.0786 23.0214 19.0838 23.0214 19.0865 23.0241C19.0838 23.0267 19.0812 23.0319 19.076 23.0345H19.0786ZM35.0841 28.2494C35.0841 28.2494 35.0946 28.2598 35.0998 28.2651C35.0711 28.2703 35.0397 28.2755 35.0109 28.2808C35.024 28.2546 35.0397 28.2311 35.0528 28.2049C35.0528 28.2049 35.0658 28.2102 35.0711 28.2128C35.0763 28.2258 35.0789 28.2363 35.0841 28.2494ZM19.4055 25.4223V25.4144C19.4055 25.4144 19.4055 25.4196 19.4055 25.4223ZM7.34122 26.7639C7.33598 26.743 7.33337 26.7273 7.32814 26.7038C7.34383 26.7038 7.35691 26.7038 7.3726 26.7038C7.36214 26.7247 7.35168 26.7456 7.34122 26.7639ZM10.1866 27.9303C10.1866 27.9329 10.1866 27.9382 10.184 27.9408C10.184 27.9382 10.184 27.9329 10.1814 27.9303H10.1866ZM13.8193 31.6205C13.8193 31.6205 13.8245 31.6336 13.8245 31.6362C13.8193 31.6309 13.814 31.6283 13.8088 31.6231C13.8114 31.6231 13.8167 31.6231 13.8193 31.6231V31.6205ZM13.8245 31.6336C13.8245 31.6336 13.8376 31.6414 13.8454 31.6466C13.8376 31.6519 13.8323 31.6571 13.8245 31.6623C13.8245 31.6519 13.8245 31.644 13.8245 31.6336ZM20.279 21.1227C20.279 21.1227 20.279 21.0992 20.279 21.0861C20.2869 21.094 20.2947 21.1018 20.3026 21.1097C20.2947 21.1123 20.2869 21.1175 20.279 21.1201V21.1227ZM25.235 25.7727C25.235 25.7779 25.235 25.7858 25.235 25.791C25.2298 25.7858 25.2245 25.7806 25.2193 25.7727C25.2245 25.7727 25.2271 25.7727 25.2324 25.7727H25.235ZM35.7824 23.942C35.7824 23.942 35.7746 23.942 35.772 23.942L35.6804 23.8976C35.0815 24.146 34.6082 24.5043 34.5219 25.2052C34.5402 25.621 34.6892 25.9532 35.0946 26.1284C35.0946 26.2382 35.0998 26.3481 35.1024 26.4605C34.582 26.2173 34.2839 26.8424 33.8131 26.7901C33.7163 26.3795 33.617 25.9689 33.5202 25.5583C33.4731 25.0143 33.8523 24.3735 33.1671 23.9682C33.0939 23.84 33.0207 23.7119 32.9501 23.5863C33.3685 23.466 33.7896 23.3457 34.208 23.228C34.2734 23.296 34.3466 23.364 34.4356 23.4268C34.6762 23.521 34.9115 23.5131 35.1364 23.3797C35.1469 23.364 35.1521 23.351 35.16 23.3353C35.3666 23.5053 35.5837 23.5419 35.8007 23.521C35.7144 23.6125 35.6883 23.7406 35.7824 23.9446V23.942ZM33.2404 11.2239C33.2404 11.2239 33.2456 11.2317 33.2482 11.2344C33.2482 11.2344 33.2456 11.237 33.243 11.2396C33.243 11.2344 33.2404 11.2291 33.2377 11.2239H33.2404ZM17.8782 28.0663C17.784 28.1579 17.7187 28.2677 17.6873 28.3932C17.6899 28.4298 17.6873 28.4665 17.6873 28.5057C17.6454 28.5057 17.6036 28.5031 17.5617 28.5005C17.5617 28.4848 17.5565 28.4717 17.5539 28.456C17.5121 28.2389 17.4336 28.0349 17.2819 27.8676C17.2584 27.8519 17.2322 27.8414 17.2061 27.8283C17.2218 27.7551 17.2374 27.6793 17.2531 27.606C17.4022 27.3471 17.499 27.0777 17.3708 26.7796C17.3316 26.7142 17.2819 26.6671 17.2296 26.6253C17.1721 25.9506 17.5931 25.7518 18.1842 25.7283C18.2286 25.7335 18.2731 25.7387 18.3176 25.7466C18.3149 25.7623 18.3097 25.7727 18.3071 25.7884C18.3202 25.8956 18.3699 25.9767 18.4483 26.0342C18.3646 26.1362 18.3437 26.2565 18.396 26.3925C18.5503 26.6619 18.7046 26.9313 18.8589 27.2007C18.736 27.2347 18.6314 27.2974 18.5477 27.3916C18.3725 27.6636 18.1345 27.8728 17.8808 28.0663H17.8782ZM20.2869 23.8949C20.2869 23.8949 20.2869 23.8949 20.2869 23.8923C20.2869 23.8923 20.2895 23.8923 20.2921 23.8949H20.2895H20.2869ZM20.2869 23.8923H20.2476C20.2476 23.8923 20.2476 23.874 20.2503 23.8636C20.2607 23.874 20.2738 23.8819 20.2869 23.8897V23.8923ZM31.6764 35.0073C31.6764 35.0073 31.6843 35.0256 31.6921 35.0334C31.7026 35.0413 31.713 35.0439 31.7235 35.0517C31.7078 35.0648 31.6947 35.0779 31.679 35.091C31.6764 35.0674 31.6712 35.0413 31.6686 35.0177C31.6686 35.0151 31.6738 35.0099 31.6764 35.0073ZM7.34122 18.9834C7.34122 18.9834 7.34122 18.9834 7.34122 18.9861V18.9834ZM3.37383 25.1215C3.37383 25.1215 3.37383 25.1163 3.37383 25.1137C3.38952 25.098 3.40521 25.0849 3.42352 25.0744C3.40783 25.0901 3.39214 25.1058 3.37645 25.1215H3.37383ZM21.3042 23.0267C21.2101 23.113 21.1421 23.2123 21.0924 23.3274C20.8335 23.3196 20.5745 23.3091 20.3182 23.3013C20.2816 23.2045 20.2816 23.1051 20.3182 23.0084C20.755 22.6971 20.6582 21.9466 21.3068 21.8079C21.3696 21.8393 21.435 21.8576 21.503 21.8629C21.6102 21.9492 21.72 22.0381 21.8273 22.1244C21.9528 22.3859 22.196 22.6056 22.1228 22.9325C22.1176 22.9325 22.1123 22.9377 22.1071 22.9377C22.1071 22.9377 22.1071 22.943 22.1071 22.9456C21.8508 22.7625 21.5788 22.841 21.3042 23.0267ZM38.1806 24.2192C38.1806 24.2192 38.1806 24.2062 38.1806 24.1983C38.1885 24.2035 38.1963 24.2088 38.2042 24.214C38.2016 24.214 38.1989 24.2192 38.1963 24.2219H38.1806V24.2192ZM16.3012 8.47262C16.3012 8.47262 16.3012 8.49354 16.3012 8.504C16.2933 8.49615 16.2855 8.49092 16.2776 8.48308C16.2855 8.48046 16.2933 8.47785 16.3012 8.47262ZM20.8622 30.0932C20.8988 30.067 20.9355 30.0382 20.9747 30.0121L20.993 30.0696C20.9407 30.0932 20.8988 30.101 20.8648 30.0932H20.8622ZM21.856 25.5216C21.8927 25.4798 21.9293 25.4406 21.9763 25.404C22.0496 25.0587 21.9423 24.8103 21.5867 24.7057C21.5762 24.7057 21.5657 24.7083 21.5553 24.7083C21.571 24.4598 21.584 24.2114 21.5997 23.9629C21.8377 23.9446 22.0836 23.9472 22.1725 23.6543L22.4863 23.9211C22.5909 24.2114 22.6955 24.4991 22.8028 24.7894C22.6459 25.0718 22.5203 25.3647 22.4732 25.6759C22.4314 25.6707 22.3922 25.6629 22.3503 25.6576C22.1882 25.6393 22.0339 25.6419 21.9005 25.6969C21.9057 25.6786 21.9083 25.6603 21.911 25.6315C21.911 25.5896 21.8927 25.553 21.856 25.5243V25.5216ZM24.5707 27.8728C24.5707 27.8728 24.5707 27.8728 24.5681 27.8728H24.5707ZM42.1506 27.9094L42.1349 27.9016C42.1402 27.8989 42.1428 27.8937 42.148 27.8911C42.148 27.8963 42.148 27.9016 42.148 27.9094H42.1506ZM38.1754 15.8686C38.1754 15.8686 38.178 15.8686 38.1806 15.8686C38.1806 15.8686 38.1806 15.8686 38.1806 15.8713V15.866L38.1754 15.8686ZM4.00411 23.0136V23.0084C4.00411 23.0084 4.00934 23.0084 4.00934 23.011C4.00934 23.011 4.00411 23.011 4.0015 23.011L4.00411 23.0136ZM23.0669 32.2403C23.0669 32.2403 23.0512 32.2638 23.0329 32.2874C22.604 32.4574 22.8498 32.8706 22.7635 33.1635C22.7034 33.2263 22.6459 33.2864 22.5857 33.3492C22.5779 33.3047 22.57 33.2603 22.5569 33.2158C22.2039 32.5123 22.2405 31.6466 21.6651 31.0373C21.72 30.9379 21.775 30.8385 21.8273 30.7365C21.7357 30.6136 21.6207 30.5142 21.4847 30.4436C21.4847 30.4436 21.4794 30.4436 21.4768 30.4436C21.3173 29.8918 21.1578 29.34 20.9956 28.7881C20.8779 28.2938 21.0662 27.7316 20.6556 27.3053C20.5405 27.0045 20.4255 26.7038 20.3078 26.4056C20.4072 26.3847 20.4987 26.3507 20.5902 26.3062C20.7968 26.4475 21.0008 26.5887 21.2074 26.7273C21.3094 27.0464 21.5997 26.981 21.8325 27.0333L21.775 27.0804C21.911 27.4988 21.6076 28.1814 22.4392 28.1814C22.5491 28.3043 22.6563 28.4272 22.7662 28.5501C22.774 28.6678 22.7792 28.7881 22.7871 28.9058C22.7792 28.9764 22.7792 29.047 22.7818 29.1177C22.8446 29.1412 22.9074 29.1569 22.9728 29.1673C22.9571 29.2249 22.9414 29.2798 22.9257 29.3373C23.0172 29.9179 22.3085 30.5378 23.0198 31.0817C23.0329 31.0844 23.0408 31.0844 23.0538 31.0896C22.7243 31.3616 22.774 31.7146 22.9335 32.0886C23.012 32.1958 23.1114 32.2508 23.2264 32.2586C23.1715 32.2586 23.114 32.2534 23.0591 32.2403H23.0669ZM24.1156 28.2729C24.1156 28.2755 24.1156 28.2808 24.1156 28.2834C24.113 28.2808 24.1078 28.2755 24.1052 28.2729C24.1078 28.2729 24.113 28.2729 24.1156 28.2729ZM41.9754 24.6926C41.9283 24.7397 41.8786 24.7815 41.8133 24.8024C41.8682 24.7658 41.9205 24.7292 41.9754 24.6926ZM36.9541 15.8843C37.0639 15.8922 37.1711 15.9053 37.2653 15.9392C36.7867 16.0752 36.4964 16.4362 36.2166 16.8101C36.2453 16.5957 36.2584 16.3786 36.2898 16.1642C36.2898 16.1563 36.2898 16.1485 36.2898 16.1432C36.5121 16.0569 36.7344 15.9706 36.9567 15.8843H36.9541ZM31.4254 6.63669C31.4254 6.63669 31.4175 6.6393 31.4149 6.64192C31.4149 6.64192 31.4149 6.63407 31.4149 6.63146C31.4175 6.63146 31.4227 6.63407 31.4254 6.63669ZM4.23949 26.4553C4.23949 26.4553 4.26041 26.4475 4.27087 26.4396C4.27087 26.4501 4.27349 26.4605 4.27349 26.4605C4.26303 26.4605 4.24995 26.4553 4.23949 26.4527V26.4553ZM21.1394 35.9435C20.959 35.6846 20.7419 35.4571 20.5405 35.2191C20.3836 35.0256 20.2476 34.8164 20.0541 34.6542C19.9652 34.6124 19.8737 34.5941 19.7769 34.5914C19.8057 34.5235 19.8109 34.4502 19.7873 34.3691C19.6566 34.1181 19.4421 33.969 19.1832 33.8775C19.0525 33.8382 18.9217 33.8199 18.7883 33.8069C18.6759 33.6918 18.566 33.5767 18.4536 33.4643C18.4483 33.3701 18.4352 33.2786 18.4117 33.187C18.566 32.7137 19.1597 32.9229 19.3846 32.562C19.8658 32.358 20.3444 32.154 20.8256 31.9474C21.0767 32.4548 20.6818 33.2603 21.537 33.4878C21.1264 33.9952 21.7828 34.4973 21.5422 35.002C21.822 35.0753 21.8927 35.2845 21.9005 35.5382C21.9136 35.5408 21.924 35.5486 21.9371 35.5539C21.9188 35.5879 21.8979 35.6193 21.8822 35.6559C21.7436 36.0795 21.7593 36.5058 21.7959 36.9321C21.7567 36.8694 21.7148 36.8066 21.6756 36.7412C21.4951 36.4745 21.3173 36.2103 21.1394 35.9435ZM23.9613 39.3696C23.9169 39.1133 23.8855 38.8544 23.8437 38.6007C23.637 37.6252 24.0555 36.5555 23.6867 35.6036C23.6867 35.4126 23.6867 35.2217 23.6893 35.0308C23.9247 34.411 23.9535 33.7912 23.6684 33.1766C23.5847 33.1792 23.501 33.1766 23.42 33.1609C23.3964 32.9543 23.3729 32.7477 23.3494 32.5411C23.3807 32.4443 23.386 32.3475 23.3651 32.2482C23.9012 31.8349 23.5769 31.2282 23.7077 30.7234C23.8018 30.5116 23.896 30.2972 23.9901 30.0853C24.3196 29.8866 24.2699 29.5256 24.3589 29.2223C24.8584 29.204 25.3579 29.1857 25.8574 29.1673C26.2445 29.0287 26.0457 30.6528 26.7754 29.4707C26.914 29.476 27.05 29.4812 27.1886 29.4864C27.2749 29.9938 27.594 30.2265 28.0595 30.0435C28.4335 29.8944 28.1981 29.6538 28.0124 29.4733C27.913 29.2563 27.811 29.0418 27.7117 28.8274C27.7064 28.6574 27.6986 28.4848 27.6933 28.3148C27.6803 28.2755 27.6594 28.2415 27.6384 28.2049C27.6594 28.1997 27.6803 28.1971 27.7012 28.1919L27.6933 28.3148C28.0935 28.2651 28.4936 28.218 28.8964 28.1683C29.1082 28.2912 29.3174 28.4141 29.5293 28.5397C29.1945 29.0967 29.3174 29.6355 29.5842 30.1716C29.1762 30.7025 29.3907 31.3537 29.2364 31.9343C28.7578 32.3423 28.7708 32.9438 28.627 33.4852C27.5469 33.6604 27.3952 34.4476 27.4083 35.3394C26.8721 35.3551 26.5531 35.6297 26.3909 36.1005C26.3857 36.1005 26.3831 36.1005 26.3779 36.1005C25.9306 36.2626 25.4756 36.4221 25.5357 36.9478C25.5279 36.9478 25.52 36.9504 25.5096 36.953C24.827 37.3323 24.3196 37.8082 24.5315 38.6896C24.5655 38.7131 24.5995 38.7314 24.6335 38.7471C24.4792 38.8413 24.4818 38.9825 24.5498 39.1447C24.5576 39.1891 24.5655 39.2362 24.5733 39.2806C24.351 39.2257 24.1523 39.2806 23.9613 39.3722V39.3696Z" fill="#CBADFF"/>
<path d="M12.6047 35.9697C12.0869 36.0821 12.0319 36.2783 12.0293 36.4823C12.0267 36.7203 12.1941 36.8641 12.4085 36.8536C12.6805 36.8379 12.895 36.7072 12.7721 36.3698C12.7041 36.1841 12.6178 36.0063 12.6047 35.9697Z" fill="#CBADFF"/>
<path d="M35.7061 6.34637C35.7061 6.34637 35.7139 6.35684 35.7165 6.36207C35.7165 6.36207 35.7165 6.36207 35.7191 6.36207L35.7061 6.34637Z" fill="#CBADFF"/>
<path d="M39.6251 9.3749C40.0279 9.46644 40.0697 9.0663 40.1822 8.78908C40.1927 8.48047 39.9808 8.31048 39.7298 8.30525C39.4081 8.30002 39.1047 8.49094 39.1701 8.85446C39.2067 9.05584 39.4395 9.33306 39.6278 9.37752L39.6251 9.3749Z" fill="#CBADFF"/>
<path d="M35.7186 6.36126C35.7186 6.36126 35.7186 6.35124 35.7186 6.34372C35.7136 6.34372 35.7086 6.34372 35.7061 6.34372L35.7186 6.35876V6.36126Z" fill="#CBADFF"/>
<path d="M36.8973 5.95672C37.0071 5.71612 36.9914 5.43105 36.7665 5.27152C36.3951 5.00999 36.0211 4.99692 35.7492 5.44674C35.7492 5.63243 35.7439 5.8155 35.7413 6.00118C35.7335 6.11626 35.7256 6.22871 35.7178 6.34379C36.1336 6.2784 36.6488 6.5007 36.8947 5.95672H36.8973Z" fill="#CBADFF"/>
<path d="M11.2638 5.40228C11.5254 5.40228 11.6195 5.21659 11.5698 5.0126C11.5123 4.77722 11.3972 4.54446 11.086 4.54446C10.8323 4.57323 10.7408 4.78246 10.7591 4.96552C10.7852 5.22705 10.9762 5.40228 11.2638 5.40489V5.40228Z" fill="#CBADFF"/>
<path d="M25.4582 0.68692C25.5523 0.718303 25.704 0.590154 25.7903 0.55354C25.8845 0.263244 25.7929 0.0775586 25.589 0.00433072C25.5105 -0.0244374 25.3117 0.0958656 25.2647 0.195246C25.1679 0.394008 25.2411 0.616307 25.4556 0.68692H25.4582Z" fill="#CBADFF"/>
</svg>
