<svg width="109" height="20" viewBox="0 0 87 16" fill="none" xmlns="http://www.w3.org/2000/svg">
<g clip-path="url(#clip0_21_688)">
<path d="M6.52645 15.6095H0V0.442749H6.52645C7.4646 0.455814 8.24615 0.566139 8.86965 0.772272C9.93105 1.12212 10.7909 1.76374 11.4492 2.6957C11.977 3.45055 12.3366 4.26637 12.528 5.14462C12.7194 6.02286 12.8151 6.85901 12.8151 7.65451C12.8151 9.67084 12.4105 11.3794 11.6029 12.7788C10.5067 14.6659 8.81455 15.6081 6.525 15.6081L6.52645 15.6095ZM8.8798 4.31138C8.3926 3.48829 7.43125 3.07603 5.9914 3.07603H3.07255V12.9748H5.9914C7.4849 12.9748 8.526 12.2373 9.11615 10.7625C9.43805 9.95246 9.599 8.99002 9.599 7.8708C9.599 6.32771 9.35975 5.14026 8.8798 4.31138Z" fill="#F9F8FC"/>
<path d="M22.9844 9.76519V0.442749H26.202V9.76519C26.202 11.378 25.9511 12.6322 25.4523 13.5308C24.52 15.1769 22.7423 16 20.1178 16C17.4933 16 15.7127 15.1769 14.7731 13.5308C14.2728 12.6322 14.0234 11.3765 14.0234 9.76519V0.442749H17.241V9.76519C17.241 10.8075 17.3642 11.5696 17.6107 12.0501C17.995 12.9007 18.8302 13.3261 20.1178 13.3261C21.4054 13.3261 22.2319 12.9007 22.6147 12.0501C22.8612 11.5696 22.9844 10.8089 22.9844 9.76519Z" fill="#F9F8FC"/>
<path d="M41.1297 15.6095H37.0596L32.3833 8.98276L30.8724 10.536V15.6081H27.7578V0.442749H30.8724V6.68771L36.7217 0.442749H40.8122L34.6047 6.68771L41.1312 15.6081L41.1297 15.6095Z" fill="#F9F8FC"/>
<path d="M52.6108 8.98276H45.252V12.8819H53.6388V15.6081H42.1592V0.442749H53.2691V3.12829H45.252V6.34948H52.6108V8.98421V8.98276Z" fill="#F9F8FC"/>
<path d="M67.4509 13.4175C68.1976 13.4175 68.8037 13.3348 69.2706 13.1708C70.1551 12.8557 70.5959 12.2693 70.5959 11.4114C70.5959 10.9105 70.377 10.523 69.9376 10.2486C69.4983 9.98149 68.811 9.74487 67.8714 9.53874L66.2677 9.17873C64.6915 8.82163 63.6026 8.43404 62.9994 8.01597C61.9786 7.31628 61.4682 6.22174 61.4682 4.73381C61.4682 3.37507 61.9612 2.24714 62.9486 1.34858C63.9346 0.450009 65.3846 0 67.2957 0C68.8922 0 70.2537 0.42388 71.3818 1.27019C72.5085 2.11795 73.1001 3.34749 73.1552 4.95881H70.1131C70.058 4.04718 69.6607 3.39829 68.9212 3.01361C68.4282 2.75957 67.8148 2.63328 67.0811 2.63328C66.2662 2.63328 65.6152 2.79731 65.128 3.12684C64.6408 3.45636 64.3986 3.91653 64.3986 4.5059C64.3986 5.04736 64.6379 5.45237 65.1178 5.71947C65.4267 5.89802 66.0835 6.10706 67.0913 6.34658L69.7013 6.97369C70.8453 7.24805 71.7081 7.61531 72.291 8.07403C73.1958 8.78679 73.6482 9.82036 73.6482 11.1718C73.6482 12.5233 73.1189 13.7079 72.0604 14.6238C71.0019 15.5398 69.507 15.9971 67.5741 15.9971C65.6413 15.9971 64.0492 15.5456 62.9182 14.6442C61.7872 13.7427 61.2217 12.5015 61.2217 10.9251H64.2435C64.3392 11.6175 64.5277 12.1357 64.809 12.4783C65.3223 13.1025 66.2039 13.4146 67.4509 13.4146V13.4175Z" fill="#F9F8FC"/>
<path d="M86.9999 0.442749V3.12829H82.4672V15.6095H79.2815V3.12829H74.7285V0.442749H86.9999Z" fill="#F9F8FC"/>
</g>
<defs>
<clipPath id="clip0_21_688">
<rect width="87" height="16" fill="white"/>
</clipPath>
</defs>
</svg>
